<svg xmlns="http://www.w3.org/2000/svg" width="44.464" height="44.435" viewBox="0 0 44.464 44.435">
  <path id="cancer" d="M7.316,6.751a30.306,30.306,0,0,1,13.22-3.116A23.95,23.95,0,0,1,31.686,6.4a10.779,10.779,0,0,0-8.76,10.574,10.6,10.6,0,0,0,3.158,7.586,10.832,10.832,0,0,0,15.208,0,10.6,10.6,0,0,0,3.158-7.586,10.725,10.725,0,0,0-3.04-7.487h0a27.066,27.066,0,0,0-5.584-4.689A28.152,28.152,0,0,0,20.536.163,33.8,33.8,0,0,0,5.669,3.692,28.419,28.419,0,0,0,0,7.289L2.282,9.905A25.688,25.688,0,0,1,7.316,6.751ZM33.688,24.2a7.261,7.261,0,1,1,7.29-7.232A7.27,7.27,0,0,1,33.688,24.2Zm8.494,10.653a25.688,25.688,0,0,1-5.034,3.155,30.306,30.306,0,0,1-13.22,3.116A23.9,23.9,0,0,1,12.8,38.36,10.779,10.779,0,0,0,21.537,27.79,10.6,10.6,0,0,0,18.38,20.2a10.832,10.832,0,0,0-15.208,0A10.6,10.6,0,0,0,.014,27.79a10.723,10.723,0,0,0,2.93,7.373l0,0a27.647,27.647,0,0,0,5.635,4.743,28.18,28.18,0,0,0,15.35,4.69,33.8,33.8,0,0,0,14.867-3.529,28.411,28.411,0,0,0,5.67-3.6Zm-31.406-14.3a7.261,7.261,0,1,1-7.29,7.232A7.27,7.27,0,0,1,10.776,20.558Z" transform="translate(0 -0.163)" fill="#0373be"/>
</svg>
